<svg xmlns="http://www.w3.org/2000/svg" viewBox="0 0 157.44 46.44"><defs><style>.cls-1{font-size:24px;fill:#e2e2e2;font-family:HelveticaNeue-BlackCond, Helvetica Neue;}.cls-2{letter-spacing:-0.09em;}.cls-3{fill:#66e666;}.cls-4{fill:#5bcccc;}</style></defs><title>Recurso 23</title><g id="Capa_2" data-name="Capa 2"><g id="Movil"><text class="cls-1" transform="translate(54.21 31.74)">EL-E<tspan class="cls-2" x="43.94" y="0">L</tspan><tspan x="52.85" y="0">YÓN</tspan></text><path class="cls-3" d="M0,23l14-14L28.6,23.51l-8.75,8.75,3.83,3.83L35.83,23.94,17.46,5.57,23,.07,46.39,23.51,23.46,46.44l-14-14,8.39-8.39-4.2-4.2L5.23,28.36S-.41,22.57,0,23Z"/><polygon class="cls-4" points="17.39 5.59 22.98 0 46.4 23.36 35.85 24.02 17.39 5.59"/><polygon class="cls-4" points="23.46 46.44 23.75 36.03 19.84 32.26 9.43 32.55 23.46 46.44"/><polygon class="cls-4" points="14.06 8.97 13.77 19.97 17.96 24.02 28.67 23.58 14.06 8.97"/></g></g></svg>